<svg width="24" height="24" viewBox="0 0 24 24" fill="none" xmlns="http://www.w3.org/2000/svg">
<path d="M22.0002 8.33994V15.6599C22.0002 17.1599 20.3703 18.0999 19.0703 17.3499L15.9002 15.5299L12.7303 13.7C12.5303 13.58 12.3702 13.45 12.2402 13.29V10.73C12.3702 10.57 12.5303 10.44 12.7303 10.32L15.9002 8.48993L19.0703 6.66996C20.3703 5.89996 22.0002 6.83994 22.0002 8.33994Z" stroke="white" stroke-width="1.5" stroke-linecap="round" stroke-linejoin="round"/>
<path d="M12.24 8.33994V15.6599C12.24 17.1599 10.61 18.0999 9.30999 17.3499L6.14001 15.5299L2.97 13.7C1.67 12.95 1.67 11.08 2.97 10.32L6.14001 8.48993L9.30999 6.66996C10.61 5.89996 12.24 6.83994 12.24 8.33994Z" stroke="white" stroke-width="1.5" stroke-linecap="round" stroke-linejoin="round"/>
</svg>
