<svg width="22" height="22" viewBox="0 0 22 22" fill="none" xmlns="http://www.w3.org/2000/svg">
<path d="M14.9697 8C14.9697 11.87 11.8397 15 7.96973 15C7.64973 15 7.33973 14.98 7.03973 14.93C3.60973 14.48 0.969727 11.55 0.969727 8C0.969727 4.13 4.09973 1 7.96973 1C11.5197 1 14.4497 3.64 14.8997 7.07C14.9497 7.37 14.9697 7.68 14.9697 8Z" stroke="white" stroke-width="1.5" stroke-linecap="round" stroke-linejoin="round"/>
<path d="M20.97 14.0003C20.97 17.8703 17.84 21.0003 13.97 21.0003C10.42 21.0003 7.49004 18.3603 7.04004 14.9303C7.34004 14.9803 7.65004 15.0003 7.97004 15.0003C11.84 15.0003 14.97 11.8703 14.97 8.00031C14.97 7.68031 14.95 7.37031 14.9 7.07031C18.33 7.52031 20.97 10.4503 20.97 14.0003Z" stroke="white" stroke-width="1.5" stroke-linecap="round" stroke-linejoin="round"/>
<path d="M13.1201 13.1201L14.4301 14.4101" stroke="white" stroke-width="1.5" stroke-linecap="round" stroke-linejoin="round"/>
<path d="M15.9697 11L14.9697 10" stroke="white" stroke-width="1.5" stroke-linecap="round" stroke-linejoin="round"/>
<path d="M10.9697 16L9.96973 15" stroke="white" stroke-width="1.5" stroke-linecap="round" stroke-linejoin="round"/>
</svg>
