<svg width="24" height="24" viewBox="0 0 24 24" fill="none" xmlns="http://www.w3.org/2000/svg">
<path d="M8.94029 16.9304L6.11027 14.1003C5.17027 13.1603 5.17027 12.2103 6.11027 11.2703L10.8303 6.55029L16.0203 11.7403C16.2803 12.0003 16.2803 12.4204 16.0203 12.6804L11.7703 16.9304C10.8303 17.8704 9.88029 17.8704 8.94029 16.9304Z" stroke="white" stroke-width="1.5" stroke-miterlimit="10" stroke-linecap="round" stroke-linejoin="round"/>
<path d="M9.87988 5.6001L10.8299 6.5401" stroke="white" stroke-width="1.5" stroke-miterlimit="10" stroke-linecap="round" stroke-linejoin="round"/>
<path d="M5.44043 12.6399L16.1304 12.1699" stroke="white" stroke-width="1.5" stroke-miterlimit="10" stroke-linecap="round" stroke-linejoin="round"/>
<path d="M17.3003 14.8101C17.3003 14.8101 15.9903 16.23 15.9903 17.1C15.9903 17.82 16.5803 18.41 17.3003 18.41C18.0203 18.41 18.6103 17.82 18.6103 17.1C18.6003 16.23 17.3003 14.8101 17.3003 14.8101Z" stroke="white" stroke-width="1.5" stroke-linecap="round" stroke-linejoin="round"/>
<path d="M22 15V9C22 4 20 2 15 2H9C4 2 2 4 2 9V15C2 20 4 22 9 22H15C20 22 22 20 22 15Z" stroke="white" stroke-width="1.5" stroke-linecap="round" stroke-linejoin="round"/>
</svg>
