<svg width="24" height="24" viewBox="0 0 24 24" fill="none" xmlns="http://www.w3.org/2000/svg">
<path d="M16.61 19.9999C17.95 20.0099 19.24 19.5099 20.23 18.6099C23.5 15.7499 21.75 10.0099 17.44 9.46995C15.9 0.129949 2.42998 3.66995 5.61998 12.5599" stroke="white" stroke-width="1.5" stroke-miterlimit="10" stroke-linecap="round" stroke-linejoin="round"/>
<path d="M7.28011 12.9698C6.75011 12.6998 6.16011 12.5598 5.57011 12.5698C0.910109 12.8998 0.920108 19.6798 5.57011 20.0098" stroke="white" stroke-width="1.5" stroke-miterlimit="10" stroke-linecap="round" stroke-linejoin="round"/>
<path d="M15.8201 9.88998C16.3401 9.62998 16.9001 9.48998 17.4801 9.47998" stroke="white" stroke-width="1.5" stroke-miterlimit="10" stroke-linecap="round" stroke-linejoin="round"/>
<path d="M9.23008 19.1598H10.2301V21.4898C10.2301 21.8298 10.6601 21.9998 10.8801 21.7398L13.3301 18.9498C13.6301 18.6098 13.5001 18.3298 13.0501 18.3298H12.0501V15.9998C12.0501 15.6598 11.6201 15.4898 11.4001 15.7498L8.95008 18.5398C8.65008 18.8798 8.78008 19.1598 9.23008 19.1598Z" stroke="white" stroke-width="1.5" stroke-miterlimit="10" stroke-linecap="round" stroke-linejoin="round"/>
</svg>
