<svg width="24" height="24" viewBox="0 0 24 24" fill="none" xmlns="http://www.w3.org/2000/svg">
<path d="M22 10V15C22 20 20 22 15 22H9C4 22 2 20 2 15V9C2 4 4 2 9 2H14" stroke="white" stroke-width="1.5" stroke-linecap="round" stroke-linejoin="round"/>
<path d="M22 10H18C15 10 14 9 14 6V2L22 10Z" stroke="white" stroke-width="1.5" stroke-linecap="round" stroke-linejoin="round"/>
<path d="M6.62 15.7299C6.29 14.6999 6.68 13.4299 7.75 13.0799C8.32 12.8999 9.02 13.0499 9.41 13.5999C9.78 13.0299 10.51 12.8999 11.07 13.0799C12.15 13.4299 12.53 14.6999 12.21 15.7299C11.7 17.3599 9.91 18.2099 9.41 18.2099C8.92 18.1999 7.15 17.3699 6.62 15.7299Z" stroke="white" stroke-width="1.5" stroke-linecap="round" stroke-linejoin="round"/>
</svg>
