<svg width="24" height="24" viewBox="0 0 24 24" fill="none" xmlns="http://www.w3.org/2000/svg">
<path d="M21.63 14.75C21.63 15.64 21.39 16.48 20.95 17.2C20.13 18.57 18.62 19.5 16.88 19.5C15.94 19.5 15.06 19.22 14.32 18.73C13.7 18.35 13.19 17.82 12.82 17.2C12.38 16.48 12.13 15.64 12.13 14.75C12.13 12.13 14.26 10 16.88 10C17.24 10 17.59 10.04 17.92 10.12C20.05 10.59 21.63 12.49 21.63 14.75Z" stroke="white" stroke-width="1.5" stroke-miterlimit="10" stroke-linecap="round" stroke-linejoin="round"/>
<path d="M15.0303 14.7501L16.2003 15.9201L18.7302 13.5801" stroke="white" stroke-width="1.5" stroke-linecap="round" stroke-linejoin="round"/>
<path d="M20.6896 4.01999V6.23999C20.6896 7.04999 20.1796 8.06001 19.6796 8.57001L17.9196 10.12C17.5896 10.04 17.2396 10 16.8796 10C14.2596 10 12.1296 12.13 12.1296 14.75C12.1296 15.64 12.3796 16.48 12.8196 17.2C13.1896 17.82 13.6996 18.35 14.3196 18.73V19.07C14.3196 19.68 13.9195 20.49 13.4095 20.79L11.9996 21.7C10.6896 22.51 8.86957 21.6 8.86957 19.98V14.63C8.86957 13.92 8.45957 13.01 8.05957 12.51L4.21954 8.47C3.71954 7.96 3.30957 7.05001 3.30957 6.45001V4.12C3.30957 2.91 4.21959 2 5.32959 2H18.6696C19.7796 2 20.6896 2.90999 20.6896 4.01999Z" stroke="white" stroke-width="1.5" stroke-miterlimit="10" stroke-linecap="round" stroke-linejoin="round"/>
</svg>
