<svg width="24" height="24" viewBox="0 0 24 24" fill="none" xmlns="http://www.w3.org/2000/svg">
<path d="M14.3196 19.0698C14.3196 19.6798 13.9195 20.4798 13.4095 20.7898L11.9996 21.6998C10.6896 22.5098 8.86957 21.5998 8.86957 19.9798V14.6298C8.86957 13.9198 8.46957 13.0098 8.05957 12.5098L4.21954 8.46976C3.70954 7.95976 3.30957 7.05977 3.30957 6.44977V4.12976C3.30957 2.91976 4.21959 2.00977 5.32959 2.00977H18.6696C19.7796 2.00977 20.6896 2.91975 20.6896 4.02975V6.24976C20.6896 7.05976 20.1796 8.06976 19.6796 8.56976" stroke="white" stroke-width="1.5" stroke-miterlimit="10" stroke-linecap="round" stroke-linejoin="round"/>
<path d="M16.07 16.5201C17.8373 16.5201 19.27 15.0874 19.27 13.3201C19.27 11.5528 17.8373 10.1201 16.07 10.1201C14.3027 10.1201 12.87 11.5528 12.87 13.3201C12.87 15.0874 14.3027 16.5201 16.07 16.5201Z" stroke="white" stroke-width="1.5" stroke-linecap="round" stroke-linejoin="round"/>
<path d="M19.87 17.1201L18.87 16.1201" stroke="white" stroke-width="1.5" stroke-linecap="round" stroke-linejoin="round"/>
</svg>
