<svg width="24" height="24" viewBox="0 0 24 24" fill="none" xmlns="http://www.w3.org/2000/svg">
<path d="M13.4095 20.7898L11.9996 21.6998C10.6896 22.5098 8.86957 21.5998 8.86957 19.9798V14.6298C8.86957 13.9198 8.46957 13.0098 8.05957 12.5098L4.21954 8.46976C3.70954 7.95976 3.30957 7.05977 3.30957 6.44977V4.12976C3.30957 2.91976 4.21959 2.00977 5.32959 2.00977H18.6696C19.7796 2.00977 20.6896 2.91975 20.6896 4.02975V6.24976C20.6896 7.05976 20.1796 8.06976 19.6796 8.56976" stroke="white" stroke-width="1.5" stroke-miterlimit="10" stroke-linecap="round" stroke-linejoin="round"/>
<path d="M17.08 11.8899L13.54 15.4299C13.4 15.5699 13.27 15.8299 13.24 16.0199L13.05 17.3699C12.98 17.8599 13.32 18.1999 13.81 18.1299L15.1599 17.9399C15.3499 17.9099 15.62 17.7799 15.75 17.6399L19.29 14.0999C19.9 13.4899 20.19 12.7799 19.29 11.8799C18.4 10.9899 17.69 11.2799 17.08 11.8899Z" stroke="white" stroke-width="1.5" stroke-miterlimit="10" stroke-linecap="round" stroke-linejoin="round"/>
<path d="M16.58 12.3901C16.88 13.4701 17.72 14.3101 18.8 14.6101" stroke="white" stroke-width="1.5" stroke-miterlimit="10" stroke-linecap="round" stroke-linejoin="round"/>
</svg>
