<svg width="24" height="24" viewBox="0 0 24 24" fill="none" xmlns="http://www.w3.org/2000/svg">
<path d="M21.63 14.75C21.63 15.64 21.38 16.48 20.94 17.2C20.12 18.58 18.61 19.5 16.88 19.5C15.15 19.5 13.64 18.57 12.82 17.2C12.38 16.49 12.13 15.64 12.13 14.75C12.13 12.13 14.26 10 16.88 10C19.5 10 21.63 12.13 21.63 14.75Z" stroke="white" stroke-width="1.5" stroke-miterlimit="10" stroke-linecap="round" stroke-linejoin="round"/>
<path d="M18.6604 14.73H15.1104" stroke="white" stroke-width="1.5" stroke-miterlimit="10" stroke-linecap="round" stroke-linejoin="round"/>
<path d="M16.8799 13V16.55" stroke="white" stroke-width="1.5" stroke-miterlimit="10" stroke-linecap="round" stroke-linejoin="round"/>
<path d="M20.6896 4.02002V6.23999C20.6896 7.04999 20.1796 8.06001 19.6796 8.57001L17.9196 10.12C17.5896 10.04 17.2396 10 16.8796 10C14.2596 10 12.1296 12.13 12.1296 14.75C12.1296 15.64 12.3796 16.48 12.8196 17.2C13.1896 17.82 13.6996 18.35 14.3196 18.73V19.07C14.3196 19.68 13.9196 20.49 13.4096 20.79L11.9996 21.7C10.6896 22.51 8.86957 21.6 8.86957 19.98V14.63C8.86957 13.92 8.45957 13.01 8.05957 12.51L4.21957 8.46997C3.71957 7.95997 3.30957 7.05001 3.30957 6.45001V4.12C3.30957 2.91 4.21957 2 5.32957 2H18.6696C19.7796 2 20.6896 2.91002 20.6896 4.02002Z" stroke="white" stroke-width="1.5" stroke-miterlimit="10" stroke-linecap="round" stroke-linejoin="round"/>
</svg>
