<svg width="24" height="24" viewBox="0 0 24 24" fill="none" xmlns="http://www.w3.org/2000/svg">
<path d="M21.9703 12.0003C21.9703 14.9403 20.6903 17.6003 18.6503 19.4103C16.8903 21.0103 14.5603 21.9703 12.0003 21.9703C6.50027 21.9703 2.03027 17.5003 2.03027 12.0003C2.03027 6.50027 6.50027 2.03027 12.0003 2.03027C14.5603 2.03027 16.8903 2.99027 18.6503 4.59027C20.6903 6.40027 21.9703 9.06027 21.9703 12.0003Z" stroke="white" stroke-width="1.5" stroke-linecap="round" stroke-linejoin="round"/>
<path d="M11.9703 16.3902C11.9503 18.0402 10.7203 18.4402 9.57027 17.9802C7.20027 17.0302 5.53027 14.7102 5.53027 12.0002C5.53027 9.29024 7.20027 6.97024 9.57027 6.01024C10.7203 5.55024 11.9503 5.96024 11.9703 7.60024V16.3902Z" stroke="white" stroke-width="1.5" stroke-linecap="round" stroke-linejoin="round"/>
</svg>
