<svg width="24" height="24" viewBox="0 0 24 24" fill="none" xmlns="http://www.w3.org/2000/svg">
<path d="M12 9.32C13.19 9.32 14.16 8.35 14.16 7.16C14.16 5.97 13.19 5 12 5C10.81 5 9.83997 5.97 9.83997 7.16C9.83997 8.35 10.81 9.32 12 9.32Z" stroke="white" stroke-width="1.5" stroke-linecap="round" stroke-linejoin="round"/>
<path d="M6.79 19.0002C7.98 19.0002 8.95 18.0302 8.95 16.8402C8.95 15.6502 7.98 14.6802 6.79 14.6802C5.6 14.6802 4.63 15.6502 4.63 16.8402C4.63 18.0302 5.59 19.0002 6.79 19.0002Z" stroke="white" stroke-width="1.5" stroke-linecap="round" stroke-linejoin="round"/>
<path d="M17.21 19.0002C18.4 19.0002 19.37 18.0302 19.37 16.8402C19.37 15.6502 18.4 14.6802 17.21 14.6802C16.02 14.6802 15.05 15.6502 15.05 16.8402C15.05 18.0302 16.02 19.0002 17.21 19.0002Z" stroke="white" stroke-width="1.5" stroke-linecap="round" stroke-linejoin="round"/>
</svg>
