<svg width="24" height="24" viewBox="0 0 24 24" fill="none" xmlns="http://www.w3.org/2000/svg">
<path d="M7.96973 22C10.1789 22 11.9697 20.2091 11.9697 18C11.9697 15.7909 10.1789 14 7.96973 14C5.76059 14 3.96973 15.7909 3.96973 18C3.96973 20.2091 5.76059 22 7.96973 22Z" stroke="white" stroke-width="1.5" stroke-linecap="round" stroke-linejoin="round"/>
<path d="M11.9697 18V4" stroke="white" stroke-width="1.5" stroke-linecap="round" stroke-linejoin="round"/>
<path d="M14.6096 2.11L19.0296 3.58C20.0996 3.94 20.9796 5.15 20.9796 6.28V7.45C20.9796 8.98 19.7996 9.83 18.3496 9.35L13.9296 7.88C12.8596 7.52 11.9796 6.31 11.9796 5.18V4C11.9696 2.48 13.1596 1.62 14.6096 2.11Z" stroke="white" stroke-width="1.5" stroke-linecap="round" stroke-linejoin="round"/>
</svg>
