<svg width="24" height="24" viewBox="0 0 24 24" fill="none" xmlns="http://www.w3.org/2000/svg">
<path d="M2.58008 8.66998C3.20008 6.90998 4.30009 5.37998 5.72009 4.22998" stroke="white" stroke-width="1.5" stroke-linecap="round" stroke-linejoin="round"/>
<path d="M2 12C2 13.17 2.20999 14.29 2.57999 15.33" stroke="white" stroke-width="1.5" stroke-linecap="round" stroke-linejoin="round"/>
<path d="M9.08984 21.5703C10.0098 21.8503 10.9898 22.0002 11.9998 22.0002C17.5198 22.0002 21.9998 17.5202 21.9998 12.0002C21.9998 11.4002 21.9398 10.8102 21.8398 10.2402" stroke="white" stroke-width="1.5" stroke-linecap="round" stroke-linejoin="round"/>
<path d="M5.71991 19.7502C5.24991 19.3702 4.7999 18.9502 4.3999 18.4902" stroke="white" stroke-width="1.5" stroke-linecap="round" stroke-linejoin="round"/>
<path d="M20.2401 6.34003C18.4401 3.72003 15.4201 2 12.0001 2C10.9901 2 10.0101 2.14999 9.09009 2.42999" stroke="white" stroke-width="1.5" stroke-linecap="round" stroke-linejoin="round"/>
<path d="M8.59 17.1102C9.46813 17.1102 10.18 16.3983 10.18 15.5202C10.18 14.6421 9.46813 13.9302 8.59 13.9302C7.71186 13.9302 7 14.6421 7 15.5202C7 16.3983 7.71186 17.1102 8.59 17.1102Z" stroke="white" stroke-width="1.5" stroke-linecap="round" stroke-linejoin="round"/>
<path d="M15.9999 14.4602V8.25015C15.9999 6.93015 15.1699 6.74012 14.3299 6.97012L11.1499 7.84018C10.5699 8.00018 10.1699 8.45015 10.1699 9.12015V10.2301V10.9701V15.5202" stroke="white" stroke-width="1.5" stroke-linecap="round" stroke-linejoin="round"/>
<path d="M14.4101 16.0501C15.2882 16.0501 16.0001 15.3383 16.0001 14.4601C16.0001 13.582 15.2882 12.8701 14.4101 12.8701C13.5319 12.8701 12.8201 13.582 12.8201 14.4601C12.8201 15.3383 13.5319 16.0501 14.4101 16.0501Z" stroke="white" stroke-width="1.5" stroke-linecap="round" stroke-linejoin="round"/>
<path d="M10.1799 10.7599L15.9999 9.16992" stroke="white" stroke-width="1.5" stroke-linecap="round" stroke-linejoin="round"/>
</svg>
