<svg width="24" height="24" viewBox="0 0 24 24" fill="none" xmlns="http://www.w3.org/2000/svg">
<path d="M21.66 10.44L20.68 14.62C19.84 18.23 18.18 19.69 15.06 19.39C14.56 19.35 14.02 19.26 13.44 19.12L11.76 18.72C7.59 17.73 6.3 15.67 7.28 11.49L8.26 7.30001C8.46 6.45001 8.7 5.71001 9 5.10001C10.17 2.68001 12.16 2.03001 15.5 2.82001L17.17 3.21001C21.36 4.19001 22.64 6.26001 21.66 10.44Z" stroke="white" stroke-width="1.5" stroke-linecap="round" stroke-linejoin="round"/>
<path d="M15.0603 19.3901C14.4403 19.8101 13.6603 20.1601 12.7103 20.4701L11.1303 20.9901C7.16034 22.2701 5.07034 21.2001 3.78034 17.2301L2.50034 13.2801C1.22034 9.3101 2.28034 7.2101 6.25034 5.9301L7.83034 5.4101C8.24034 5.2801 8.63034 5.1701 9.00034 5.1001C8.70034 5.7101 8.46034 6.4501 8.26034 7.3001L7.28034 11.4901C6.30034 15.6701 7.59034 17.7301 11.7603 18.7201L13.4403 19.1201C14.0203 19.2601 14.5603 19.3501 15.0603 19.3901Z" stroke="white" stroke-width="1.5" stroke-linecap="round" stroke-linejoin="round"/>
</svg>
