<svg width="24" height="24" viewBox="0 0 24 24" fill="none" xmlns="http://www.w3.org/2000/svg">
<path d="M21.6601 10.44L20.6801 14.62C19.8401 18.23 18.1801 19.69 15.0601 19.39C14.5601 19.35 14.0201 19.26 13.4401 19.12L11.7601 18.72C7.59006 17.73 6.30006 15.67 7.28006 11.49L8.26006 7.30001C8.46006 6.45001 8.70006 5.71001 9.00006 5.10001C10.1701 2.68001 12.1601 2.03001 15.5001 2.82001L17.1701 3.21001C21.3601 4.19001 22.6401 6.26001 21.6601 10.44Z" stroke="white" stroke-width="1.5" stroke-linecap="round" stroke-linejoin="round"/>
<path d="M15.0603 19.3901C14.4403 19.8101 13.6603 20.1601 12.7103 20.4701L11.1303 20.9901C7.16034 22.2701 5.07034 21.2001 3.78034 17.2301L2.50034 13.2801C1.22034 9.3101 2.28034 7.2101 6.25034 5.9301L7.83034 5.4101C8.24034 5.2801 8.63034 5.1701 9.00034 5.1001C8.70034 5.7101 8.46034 6.4501 8.26034 7.3001L7.28034 11.4901C6.30034 15.6701 7.59034 17.7301 11.7603 18.7201L13.4403 19.1201C14.0203 19.2601 14.5603 19.3501 15.0603 19.3901Z" stroke="white" stroke-width="1.5" stroke-linecap="round" stroke-linejoin="round"/>
<path d="M12.6396 8.52979L17.4896 9.75979" stroke="white" stroke-width="1.5" stroke-linecap="round" stroke-linejoin="round"/>
<path d="M11.66 12.3999L14.56 13.1399" stroke="white" stroke-width="1.5" stroke-linecap="round" stroke-linejoin="round"/>
</svg>
