<svg width="24" height="24" viewBox="0 0 24 24" fill="none" xmlns="http://www.w3.org/2000/svg">
<path d="M16.75 9.11998L14.9 7.26998C14.2 6.56998 13.24 6.60998 12.77 7.34998L11.74 8.97998L15.03 12.27L16.66 11.24C17.37 10.8 17.41 9.76998 16.75 9.11998Z" stroke="white" stroke-width="1.5" stroke-linecap="round" stroke-linejoin="round"/>
<path d="M11.7405 8.97968L9.35045 8.83968C8.01045 8.75968 7.55045 9.16968 7.40045 10.4397L6.80045 15.5097C6.67045 16.5797 7.44045 17.3397 8.51045 17.2197L13.5805 16.6197C14.8505 16.4697 15.3105 16.0097 15.1805 14.6697L15.0405 12.2797" stroke="white" stroke-width="1.5" stroke-linecap="round" stroke-linejoin="round"/>
<path d="M7.48999 16.5199L9.33999 14.6699" stroke="white" stroke-width="1.5" stroke-linecap="round" stroke-linejoin="round"/>
<path d="M9 22H15C20 22 22 20 22 15V9C22 4 20 2 15 2H9C4 2 2 4 2 9V15C2 20 4 22 9 22Z" stroke="white" stroke-width="1.5" stroke-linecap="round" stroke-linejoin="round"/>
</svg>
