<svg width="24" height="24" viewBox="0 0 24 24" fill="none" xmlns="http://www.w3.org/2000/svg">
<path d="M10.7496 22.5001H13.2696C14.2296 22.5001 14.8496 21.8201 14.6696 20.9901L14.2596 19.1802H9.75958L9.34959 20.9901C9.16959 21.7701 9.84959 22.5001 10.7496 22.5001Z" stroke="white" stroke-width="1.5" stroke-linecap="round" stroke-linejoin="round"/>
<path d="M14.2596 19.1702L15.9896 17.6301C16.9596 16.7701 16.9996 16.1701 16.2296 15.2001L13.1796 11.3302C12.5396 10.5202 11.4896 10.5202 10.8496 11.3302L7.79957 15.2001C7.02957 16.1701 7.02956 16.8001 8.03956 17.6301L9.76957 19.1702" stroke="white" stroke-width="1.5" stroke-linecap="round" stroke-linejoin="round"/>
<path d="M12.0096 11.1201V13.6501" stroke="white" stroke-width="1.5" stroke-linecap="round" stroke-linejoin="round"/>
<path d="M12.5195 5H11.5195C10.9695 5 10.5195 4.55 10.5195 4V3C10.5195 2.45 10.9695 2 11.5195 2H12.5195C13.0695 2 13.5195 2.45 13.5195 3V4C13.5195 4.55 13.0695 5 12.5195 5Z" stroke="white" stroke-width="1.5" stroke-linecap="round" stroke-linejoin="round"/>
<path d="M3.26953 14.17H4.26953C4.81953 14.17 5.26953 13.72 5.26953 13.17V12.17C5.26953 11.62 4.81953 11.1699 4.26953 11.1699H3.26953C2.71953 11.1699 2.26953 11.62 2.26953 12.17V13.17C2.26953 13.72 2.71953 14.17 3.26953 14.17Z" stroke="white" stroke-width="1.5" stroke-linecap="round" stroke-linejoin="round"/>
<path d="M20.7295 14.17H19.7295C19.1795 14.17 18.7295 13.72 18.7295 13.17V12.17C18.7295 11.62 19.1795 11.1699 19.7295 11.1699H20.7295C21.2795 11.1699 21.7295 11.62 21.7295 12.17V13.17C21.7295 13.72 21.2795 14.17 20.7295 14.17Z" stroke="white" stroke-width="1.5" stroke-linecap="round" stroke-linejoin="round"/>
<path d="M10.52 3.56006C6.71 4.01006 3.75 7.24004 3.75 11.17" stroke="white" stroke-width="1.5" stroke-linecap="round" stroke-linejoin="round"/>
<path d="M20.2495 11.17C20.2495 7.25004 17.3095 4.03006 13.5195 3.56006" stroke="white" stroke-width="1.5" stroke-linecap="round" stroke-linejoin="round"/>
</svg>
