<svg width="24" height="24" viewBox="0 0 24 24" fill="none" xmlns="http://www.w3.org/2000/svg">
<path d="M17.0001 11.8398H14.3201C13.6101 11.8398 13.1301 11.2998 13.1301 10.6498V9.15973C13.1301 8.50973 13.6101 7.96973 14.3201 7.96973H15.8101C16.4601 7.96973 17.0001 8.50973 17.0001 9.15973V11.8398Z" stroke="white" stroke-width="1.5" stroke-linecap="round" stroke-linejoin="round"/>
<path d="M17.0002 11.8398C17.0002 14.6298 16.4802 15.0998 14.9102 16.0298" stroke="white" stroke-width="1.5" stroke-linecap="round" stroke-linejoin="round"/>
<path d="M10.8602 11.8398H8.18022C7.47022 11.8398 6.99023 11.2998 6.99023 10.6498V9.15973C6.99023 8.50973 7.47022 7.96973 8.18022 7.96973H9.67023C10.3202 7.96973 10.8602 8.50973 10.8602 9.15973V11.8398Z" stroke="white" stroke-width="1.5" stroke-linecap="round" stroke-linejoin="round"/>
<path d="M10.8603 11.8398C10.8603 14.6298 10.3403 15.0998 8.77026 16.0298" stroke="white" stroke-width="1.5" stroke-linecap="round" stroke-linejoin="round"/>
<path d="M12 22C17.5228 22 22 17.5228 22 12C22 6.47715 17.5228 2 12 2C6.47715 2 2 6.47715 2 12C2 17.5228 6.47715 22 12 22Z" stroke="white" stroke-width="1.5" stroke-linecap="round" stroke-linejoin="round"/>
</svg>
