<svg width="24" height="24" viewBox="0 0 24 24" fill="none" xmlns="http://www.w3.org/2000/svg">
<path d="M9 22H15C20 22 22 20 22 15V9C22 4 20 2 15 2H9C4 2 2 4 2 9V15C2 20 4 22 9 22Z" stroke="white" stroke-width="1.5" stroke-linecap="round" stroke-linejoin="round"/>
<path d="M7 12.1597H9.68C10.39 12.1597 10.87 12.6997 10.87 13.3497V14.8397C10.87 15.4897 10.39 16.0297 9.68 16.0297H8.19C7.54 16.0297 7 15.4897 7 14.8397V12.1597" stroke="white" stroke-width="1.5" stroke-linecap="round" stroke-linejoin="round"/>
<path d="M7 12.1597C7 9.36973 7.52 8.89973 9.09 7.96973" stroke="white" stroke-width="1.5" stroke-linecap="round" stroke-linejoin="round"/>
<path d="M13.1399 12.1597H15.8199C16.5299 12.1597 17.0099 12.6997 17.0099 13.3497V14.8397C17.0099 15.4897 16.5299 16.0297 15.8199 16.0297H14.3299C13.6799 16.0297 13.1399 15.4897 13.1399 14.8397V12.1597" stroke="white" stroke-width="1.5" stroke-linecap="round" stroke-linejoin="round"/>
<path d="M13.1399 12.1597C13.1399 9.36973 13.6599 8.89973 15.2299 7.96973" stroke="white" stroke-width="1.5" stroke-linecap="round" stroke-linejoin="round"/>
</svg>
