<svg width="24" height="24" viewBox="0 0 24 24" fill="none" xmlns="http://www.w3.org/2000/svg">
<path d="M16.96 6.16992C18.96 7.55992 20.34 9.76992 20.62 12.3199" stroke="white" stroke-width="1.5" stroke-linecap="round" stroke-linejoin="round"/>
<path d="M3.48999 12.3702C3.74999 9.83021 5.10999 7.62021 7.08999 6.22021" stroke="white" stroke-width="1.5" stroke-linecap="round" stroke-linejoin="round"/>
<path d="M8.19043 20.9399C9.35043 21.5299 10.6704 21.8599 12.0604 21.8599C13.4004 21.8599 14.6604 21.5599 15.7904 21.0099" stroke="white" stroke-width="1.5" stroke-linecap="round" stroke-linejoin="round"/>
<path d="M12.0603 7.70014C13.5956 7.70014 14.8403 6.45549 14.8403 4.92014C14.8403 3.38479 13.5956 2.14014 12.0603 2.14014C10.5249 2.14014 9.28027 3.38479 9.28027 4.92014C9.28027 6.45549 10.5249 7.70014 12.0603 7.70014Z" stroke="white" stroke-width="1.5" stroke-linecap="round" stroke-linejoin="round"/>
<path d="M4.82999 19.9199C6.36534 19.9199 7.60999 18.6752 7.60999 17.1399C7.60999 15.6045 6.36534 14.3599 4.82999 14.3599C3.29464 14.3599 2.04999 15.6045 2.04999 17.1399C2.04999 18.6752 3.29464 19.9199 4.82999 19.9199Z" stroke="white" stroke-width="1.5" stroke-linecap="round" stroke-linejoin="round"/>
<path d="M19.1696 19.9199C20.705 19.9199 21.9496 18.6752 21.9496 17.1399C21.9496 15.6045 20.705 14.3599 19.1696 14.3599C17.6343 14.3599 16.3896 15.6045 16.3896 17.1399C16.3896 18.6752 17.6343 19.9199 19.1696 19.9199Z" stroke="white" stroke-width="1.5" stroke-linecap="round" stroke-linejoin="round"/>
</svg>
