<svg width="24" height="24" viewBox="0 0 24 24" fill="none" xmlns="http://www.w3.org/2000/svg">
<path d="M17.2195 2H8.95956C8.55956 2 8.17953 2.14 7.86953 2.38L5.67953 4.13C4.79953 4.83 4.79953 6.15999 5.67953 6.85999L7.86953 8.60999C8.17953 8.85999 8.56956 8.98999 8.95956 8.98999H17.2195C18.1895 8.98999 18.9695 8.20999 18.9695 7.23999V3.73999C18.9695 2.77999 18.1895 2 17.2195 2Z" stroke="white" stroke-width="1.5" stroke-linecap="round" stroke-linejoin="round"/>
<path d="M6.79999 12H15.06C15.46 12 15.84 12.14 16.15 12.38L18.34 14.13C19.22 14.83 19.22 16.16 18.34 16.86L16.15 18.61C15.84 18.86 15.45 18.99 15.06 18.99H6.79999C5.82999 18.99 5.04999 18.21 5.04999 17.24V13.74C5.04999 12.78 5.82999 12 6.79999 12Z" stroke="white" stroke-width="1.5" stroke-linecap="round" stroke-linejoin="round"/>
<path d="M12 12V9" stroke="white" stroke-width="1.5" stroke-linecap="round" stroke-linejoin="round"/>
<path d="M12 22V19" stroke="white" stroke-width="1.5" stroke-linecap="round" stroke-linejoin="round"/>
<path d="M9 22H15" stroke="white" stroke-width="1.5" stroke-linecap="round" stroke-linejoin="round"/>
</svg>
