<svg width="24" height="24" viewBox="0 0 24 24" fill="none" xmlns="http://www.w3.org/2000/svg">
<path d="M5.28 18.6501L5.85 16.1801C5.98 15.6001 5.75 14.7901 5.33 14.3701L2.85 11.8901C1.39 10.4301 1.86 8.95014 3.9 8.61014L7.09 8.08014C7.62 7.99014 8.26 7.52014 8.5 7.03014L10.26 3.51014C11.21 1.60014 12.77 1.60014 13.73 3.51014L15.49 7.03014C15.6 7.26014 15.81 7.48014 16.04 7.67014" stroke="white" stroke-width="1.5" stroke-linecap="round" stroke-linejoin="round"/>
<path d="M20.0995 8.60986C22.1395 8.94986 22.6195 10.4299 21.1495 11.8899L18.6695 14.3699C18.2495 14.7899 18.0195 15.5999 18.1495 16.1799L18.8595 19.2499C19.4195 21.6799 18.1295 22.6199 15.9795 21.3499L12.9895 19.5799C12.4495 19.2599 11.5595 19.2599 11.0095 19.5799L8.01953 21.3499" stroke="white" stroke-width="1.5" stroke-linecap="round" stroke-linejoin="round"/>
<path d="M22 2L2 22" stroke="white" stroke-width="1.5" stroke-linecap="round" stroke-linejoin="round"/>
</svg>
